<?xml version="1.0" encoding="utf-8"?>
<!-- Generator: Adobe Illustrator 17.0.0, SVG Export Plug-In . SVG Version: 6.00 Build 0)  -->
<!DOCTYPE svg PUBLIC "-//W3C//DTD SVG 1.1//EN" "http://www.w3.org/Graphics/SVG/1.1/DTD/svg11.dtd">
<svg version="1.1" id="Layer_1" xmlns="http://www.w3.org/2000/svg" xmlns:xlink="http://www.w3.org/1999/xlink" x="0px" y="0px"
	 width="500px" height="250px" viewBox="0 0 500 250" enable-background="new 0 0 500 250" xml:space="preserve">
<g>
	<polygon fill="#4DBC93" points="143.215,133.007 155.106,133.007 157.958,122.52 146.067,122.52 	"/>
	<path fill="#FFFFFF" d="M158.621,58.699H148.25v-0.017c-17.887,0.016-29.443,10.928-29.443,27.811v35.963h-35.25V86.493
		c0-16.635-11.981-27.812-29.815-27.812c-17.909,0-29.481,10.916-29.481,27.812v5.041v12.93v0.724
		c0,16.735,11.847,27.978,29.481,27.978c0.217,0,0.425-0.017,0.637-0.025h16.686v10.575h0.005v14.218
		c0,16.735,12.132,27.978,30.191,27.978c17.856,0,29.853-11.244,29.853-27.978l0.02-24.793h8.898l2.906-10.686h-11.804V86.493
		c0-9.498,7.351-16.949,16.794-17.137h10.695c1.484,0,2.236-0.752,2.236-2.235v-6.185C160.858,59.452,160.105,58.699,158.621,58.699
		z M53.741,122.456v0.054c-9.299,0-17.156-7.933-17.156-17.322v-0.724v-12.93v-5.041c0-9.621,7.537-17.156,17.156-17.156
		c9.389,0,17.323,7.856,17.323,17.156v35.963H53.741z M101.26,175.256c-9.508,0-17.541-7.933-17.541-17.322v-24.793h34.913v24.793
		C118.632,167.324,110.676,175.256,101.26,175.256z"/>
	<path fill="#FFFFFF" d="M215.759,68.193h-5.182c-17.734,0-29.649,11.244-29.649,27.978v53.824c0,15.109,9.617,25.503,25.711,27.802
		c1.064,0.179,1.2,0.69,1.2,1.116v10.864c0,1.484,0.752,2.236,2.236,2.236h6.185c1.483,0,2.236-0.752,2.236-2.236v-10.864
		c0-0.77,0.178-1,0.854-1.114c16.177-2.335,26.226-12.988,26.226-27.804V96.172C245.576,79.437,233.594,68.193,215.759,68.193z
		 M216.261,155.281h-6.185c-1.484,0-2.236,0.752-2.236,2.236v8.191c0,1.106-0.484,1.106-0.773,1.106
		c-0.812,0-3.178-1.065-5.386-2.423c-5.325-3.288-8.258-8.402-8.258-14.397V96.172c0-9.78,7.375-17.155,17.154-17.155h5.182
		c9.551,0,17.322,7.696,17.322,17.155v53.824c0,6.253-3.102,11.421-8.714,14.539c-1.841,0.921-4.456,1.947-5.265,1.947
		c-0.312,0-0.605,0-0.605-0.941v-8.023C218.497,156.033,217.744,155.281,216.261,155.281z"/>
	<path fill="#FFFFFF" d="M310.233,70.032h-21.658c-16.255,0-29.481,13.226-29.481,29.482v11.22c0,0.858-0.249,1.106-1.108,1.106
		h-4.513c-1.484,0-2.236,0.753-2.236,2.237v6.185c0,1.482,0.752,2.235,2.236,2.235h4.513c0.859,0,1.108,0.249,1.108,1.108v50.46
		c0,1.484,0.752,2.236,2.235,2.236h7.858c1.482,0,2.233-0.752,2.233-2.236v-50.46c0-0.859,0.249-1.108,1.109-1.108h12.368
		c1.484,0,2.236-0.752,2.236-2.235v-6.185c0-1.484-0.752-2.237-2.236-2.237h-12.368c-0.861,0-1.109-0.248-1.109-1.106V97.842
		c0-9.619,7.537-17.153,17.156-17.153h10.291c0.859,0,1.108,0.248,1.108,1.106v92.27c0,1.484,0.751,2.236,2.235,2.236h8.025
		c1.483,0,2.233-0.752,2.233-2.236V72.268C312.466,70.785,311.715,70.032,310.233,70.032z"/>
	<path fill="#FFFFFF" d="M349.058,99.618c-17.909,0-29.481,10.916-29.481,27.812v22.565c0,16.735,11.847,27.978,29.481,27.978
		c17.834,0,29.815-11.244,29.815-27.978V127.43C378.873,110.795,366.892,99.618,349.058,99.618z M331.902,127.43
		c0-9.62,7.537-17.156,17.156-17.156c9.389,0,17.322,7.856,17.322,17.156v22.565c0,9.389-7.933,17.322-17.322,17.322
		c-9.299,0-17.156-7.933-17.156-17.322V127.43z"/>
	<polygon fill="#4DBC93" points="459.517,111.889 471.408,111.889 474.26,101.402 462.369,101.402 	"/>
	<path fill="#FFFFFF" d="M380.531,105.739l-0.537-2.021C380.043,104.154,380.266,104.904,380.531,105.739z"/>
	<path fill="#FFFFFF" d="M458.531,116.173l-10.344,38.962l-13.777-51.771c-0.178-0.892-0.885-1.253-1.771-1.266
		c-0.016,0-0.03-0.005-0.046-0.005h-11.413c-0.016,0-0.03,0.005-0.046,0.005c-0.884,0.013-1.591,0.374-1.77,1.266l-13.802,51.79
		c0,0-13.803-51.932-13.829-52.008c-0.249-0.718-0.881-1.037-1.683-1.049c-0.016,0-0.03-0.005-0.046-0.005h-8.036
		c-0.016,0-0.028,0.005-0.044,0.005c-1.241,0.014-1.955,0.551-1.955,1.448c0,0.043,0.018,0.119,0.024,0.173l0.537,2.021
		l18.007,67.72l0.248,0.811c0.152,0.762,0.698,1.123,1.403,1.226c0.136,0.02,0.268,0.046,0.415,0.046h9.922
		c0.147,0,0.279-0.026,0.415-0.046c0.705-0.102,1.25-0.464,1.403-1.226l0.237-0.794l14.296-53.766l14.514,54.56
		c0.152,0.762,0.698,1.123,1.403,1.226c0.136,0.02,0.268,0.046,0.415,0.046h9.922c0.147,0,0.279-0.026,0.415-0.046
		c0.705-0.102,1.25-0.464,1.403-1.226l15.474-58.097H458.531z"/>
</g>
</svg>
